<?xml version="1.0" encoding="UTF-8" standalone="no"?>
<svg
   xmlns:dc="http://purl.org/dc/elements/1.1/"
   xmlns:cc="http://creativecommons.org/ns#"
   xmlns:rdf="http://www.w3.org/1999/02/22-rdf-syntax-ns#"
   xmlns:svg="http://www.w3.org/2000/svg"
   xmlns="http://www.w3.org/2000/svg"
   xmlns:sodipodi="http://sodipodi.sourceforge.net/DTD/sodipodi-0.dtd"
   xmlns:inkscape="http://www.inkscape.org/namespaces/inkscape"
   viewBox="0 0 397.0856 330.21423"
   version="1.1"
   id="svg299"
   sodipodi:docname="background.svg"
   inkscape:version="1.0.2 (e86c870879, 2021-01-15, custom)">
  <metadata
     id="metadata303">
    <rdf:RDF>
      <cc:Work
         rdf:about="">
        <dc:format>image/svg+xml</dc:format>
        <dc:type
           rdf:resource="http://purl.org/dc/dcmitype/StillImage" />
      </cc:Work>
    </rdf:RDF>
  </metadata>
  <sodipodi:namedview
     pagecolor="#ffffff"
     bordercolor="#666666"
     borderopacity="1"
     objecttolerance="10"
     gridtolerance="10"
     guidetolerance="10"
     inkscape:pageopacity="0"
     inkscape:pageshadow="2"
     inkscape:window-width="1366"
     inkscape:window-height="705"
     id="namedview301"
     showgrid="false"
     inkscape:zoom="1.143485"
     inkscape:cx="124.96459"
     inkscape:cy="149.32989"
     inkscape:window-x="-4"
     inkscape:window-y="-4"
     inkscape:window-maximized="1"
     inkscape:current-layer="svg299" />
  <defs
     id="defs11">
    <filter
       id="c">
      <feGaussianBlur
         stdDeviation="2.95592"
         id="feGaussianBlur2" />
    </filter>
    <filter
       id="a">
      <feGaussianBlur
         stdDeviation="13.17857"
         id="feGaussianBlur5" />
    </filter>
    <filter
       id="b"
       x="-.19677"
       y="-.01133"
       width="1.3935"
       height="1.0227">
      <feGaussianBlur
         stdDeviation="2.37403"
         id="feGaussianBlur8" />
    </filter>
  </defs>
  <g
     transform="matrix(1.0371867,0,0,1.0883403,-8.7986295,-8.8195782)"
     id="g297">
    <g
       transform="matrix(0.45279,0,0,0.45279,-364.21,-1.1969)"
       id="g295">
      <path
         d="m 1215.6,19.547 c 27.546,21.831 46.533,10.462 65.754,0 v 660.98 c -36.859,23.183 -49.303,8.4826 -65.754,0 z"
         fill="#666"
         id="path13" />
      <path
         d="m 1255.4,24.343 h 394.29 v 660 H 1255.4 Z"
         fill="#666666"
         filter="url(#a)"
         stroke="#666666"
         stroke-width="4.053"
         id="path15" />
      <path
         d="m 840,22.362 h 394.29 v 660 H 840 Z"
         fill="#666666"
         filter="url(#a)"
         stroke="#666666"
         stroke-width="4.053"
         id="path17" />
      <path
         d="m 832,22.362 h 394.29 v 660 H 832 Z"
         fill="#f2f2f2"
         stroke="#666666"
         stroke-width="4.053"
         id="path19" />
      <path
         d="m 840,22.362 h 394.29 v 660 H 840 Z"
         fill="#f2f2f2"
         stroke="#666666"
         stroke-width="4.053"
         id="path21" />
      <g
         transform="matrix(0.86639,0,0,1,114.2,21.143)"
         fill="none"
         stroke="#0000ff"
         stroke-width="1.8417"
         id="g49">
        <path
           d="m 882.8,82.362 h 311.55"
           id="path23" />
        <path
           d="m 882.8,126.65 h 311.55"
           id="path25" />
        <path
           d="m 882.8,170.93 h 311.55"
           id="path27" />
        <path
           d="m 882.8,215.22 h 311.55"
           id="path29" />
        <path
           d="m 882.8,259.51 h 311.55"
           id="path31" />
        <path
           d="m 882.8,303.79 h 311.55"
           id="path33" />
        <path
           d="m 882.8,348.08 h 311.55"
           id="path35" />
        <path
           d="m 882.8,392.36 h 311.55"
           id="path37" />
        <path
           d="m 882.8,436.65 h 311.55"
           id="path39" />
        <path
           d="m 882.8,480.93 h 311.55"
           id="path41" />
        <path
           d="m 882.8,525.22 h 311.55"
           id="path43" />
        <path
           d="m 882.8,569.51 h 311.55"
           id="path45" />
        <path
           d="m 882.8,613.79 h 311.55"
           id="path47" />
      </g>
      <path
         d="m 878.57,31.839 v 625.42"
         fill="none"
         stroke="#ff0000"
         stroke-width="2.5229"
         id="path51" />
      <path
         d="M 1173.8,66.211 H 848.2"
         fill="none"
         stroke="#ff0000"
         stroke-width="1.2787"
         id="path53" />
      <path
         d="m 1265.1,22.362 h 394.29 v 660 H 1265.1 Z"
         fill="#f2f2f2"
         stroke="#666666"
         stroke-width="4.053"
         id="path55" />
      <path
         d="m 1257.1,22.362 h 394.29 v 660 H 1257.1 Z"
         fill="#f2f2f2"
         stroke="#666666"
         stroke-width="4.053"
         id="path57" />
      <g
         transform="matrix(0.92681,0,0,1,508.04,21.143)"
         fill="none"
         stroke="#0000ff"
         stroke-width="1.8417"
         id="g85">
        <path
           d="m 882.8,82.362 h 311.55"
           id="path59" />
        <path
           d="m 882.8,126.65 h 311.55"
           id="path61" />
        <path
           d="m 882.8,170.93 h 311.55"
           id="path63" />
        <path
           d="m 882.8,215.22 h 311.55"
           id="path65" />
        <path
           d="m 882.8,259.51 h 311.55"
           id="path67" />
        <path
           d="m 882.8,303.79 h 311.55"
           id="path69" />
        <path
           d="m 882.8,348.08 h 311.55"
           id="path71" />
        <path
           d="m 882.8,392.36 h 311.55"
           id="path73" />
        <path
           d="m 882.8,436.65 h 311.55"
           id="path75" />
        <path
           d="m 882.8,480.93 h 311.55"
           id="path77" />
        <path
           d="m 882.8,525.22 h 311.55"
           id="path79" />
        <path
           d="m 882.8,569.51 h 311.55"
           id="path81" />
        <path
           d="m 882.8,613.79 h 311.55"
           id="path83" />
      </g>
      <path
         d="M 1325.7,30.24 V 657.26"
         fill="none"
         stroke="#ff0000"
         stroke-width="2.6128"
         id="path87" />
      <path
         d="M 1646.6,67.64 H 1295.43"
         fill="none"
         stroke="#ff0000"
         stroke-width="1.9553"
         id="path89" />
      <path
         transform="matrix(0.59616,0,0,0.58848,869.6,159.57)"
         d="m 585.71,-96.209 c 0,12.624 -10.873,22.857 -24.286,22.857 -13.413,0 -24.286,-10.233 -24.286,-22.857 0,-12.624 10.873,-22.857 24.286,-22.857 13.413,0 24.286,10.233 24.286,22.857 z"
         fill="#f2f2f2"
         stroke="#000000"
         stroke-width="4.053"
         id="path91" />
      <path
         transform="matrix(0.59616,0,0,0.58848,869.6,219.06)"
         d="m 585.71,-96.209 c 0,12.624 -10.873,22.857 -24.286,22.857 -13.413,0 -24.286,-10.233 -24.286,-22.857 0,-12.624 10.873,-22.857 24.286,-22.857 13.413,0 24.286,10.233 24.286,22.857 z"
         fill="#f2f2f2"
         stroke="#000000"
         stroke-width="4.053"
         id="path93" />
      <path
         transform="matrix(0.59616,0,0,0.58848,869.6,278.55)"
         d="m 585.71,-96.209 c 0,12.624 -10.873,22.857 -24.286,22.857 -13.413,0 -24.286,-10.233 -24.286,-22.857 0,-12.624 10.873,-22.857 24.286,-22.857 13.413,0 24.286,10.233 24.286,22.857 z"
         fill="#f2f2f2"
         stroke="#000000"
         stroke-width="4.053"
         id="path95" />
      <path
         transform="matrix(0.59616,0,0,0.58848,869.6,338.05)"
         d="m 585.71,-96.209 c 0,12.624 -10.873,22.857 -24.286,22.857 -13.413,0 -24.286,-10.233 -24.286,-22.857 0,-12.624 10.873,-22.857 24.286,-22.857 13.413,0 24.286,10.233 24.286,22.857 z"
         fill="#f2f2f2"
         stroke="#000000"
         stroke-width="4.053"
         id="path97" />
      <path
         transform="matrix(0.59616,0,0,0.58848,869.6,397.54)"
         d="m 585.71,-96.209 c 0,12.624 -10.873,22.857 -24.286,22.857 -13.413,0 -24.286,-10.233 -24.286,-22.857 0,-12.624 10.873,-22.857 24.286,-22.857 13.413,0 24.286,10.233 24.286,22.857 z"
         fill="#f2f2f2"
         stroke="#000000"
         stroke-width="4.053"
         id="path99" />
      <path
         transform="matrix(0.59616,0,0,0.58848,869.6,457.03)"
         d="m 585.71,-96.209 c 0,12.624 -10.873,22.857 -24.286,22.857 -13.413,0 -24.286,-10.233 -24.286,-22.857 0,-12.624 10.873,-22.857 24.286,-22.857 13.413,0 24.286,10.233 24.286,22.857 z"
         fill="#f2f2f2"
         stroke="#000000"
         stroke-width="4.053"
         id="path101" />
      <path
         transform="matrix(0.59616,0,0,0.58848,869.6,516.52)"
         d="m 585.71,-96.209 c 0,12.624 -10.873,22.857 -24.286,22.857 -13.413,0 -24.286,-10.233 -24.286,-22.857 0,-12.624 10.873,-22.857 24.286,-22.857 13.413,0 24.286,10.233 24.286,22.857 z"
         fill="#f2f2f2"
         stroke="#000000"
         stroke-width="4.053"
         id="path103" />
      <path
         transform="matrix(0.59616,0,0,0.58848,869.6,576.01)"
         d="m 585.71,-96.209 c 0,12.624 -10.873,22.857 -24.286,22.857 -13.413,0 -24.286,-10.233 -24.286,-22.857 0,-12.624 10.873,-22.857 24.286,-22.857 13.413,0 24.286,10.233 24.286,22.857 z"
         fill="#f2f2f2"
         stroke="#000000"
         stroke-width="4.053"
         id="path105" />
      <path
         transform="matrix(0.59616,0,0,0.58848,869.6,635.5)"
         d="m 585.71,-96.209 c 0,12.624 -10.873,22.857 -24.286,22.857 -13.413,0 -24.286,-10.233 -24.286,-22.857 0,-12.624 10.873,-22.857 24.286,-22.857 13.413,0 24.286,10.233 24.286,22.857 z"
         fill="#f2f2f2"
         stroke="#000000"
         stroke-width="4.053"
         id="path107" />
      <path
         transform="matrix(0.59616,0,0,0.58848,954.59,159.57)"
         d="m 585.71,-96.209 c 0,12.624 -10.873,22.857 -24.286,22.857 -13.413,0 -24.286,-10.233 -24.286,-22.857 0,-12.624 10.873,-22.857 24.286,-22.857 13.413,0 24.286,10.233 24.286,22.857 z"
         fill="#f2f2f2"
         stroke="#000000"
         stroke-width="4.053"
         id="path109" />
      <path
         transform="matrix(0.59616,0,0,0.58848,954.59,219.06)"
         d="m 585.71,-96.209 c 0,12.624 -10.873,22.857 -24.286,22.857 -13.413,0 -24.286,-10.233 -24.286,-22.857 0,-12.624 10.873,-22.857 24.286,-22.857 13.413,0 24.286,10.233 24.286,22.857 z"
         fill="#f2f2f2"
         stroke="#000000"
         stroke-width="4.053"
         id="path111" />
      <path
         transform="matrix(0.59616,0,0,0.58848,954.59,278.55)"
         d="m 585.71,-96.209 c 0,12.624 -10.873,22.857 -24.286,22.857 -13.413,0 -24.286,-10.233 -24.286,-22.857 0,-12.624 10.873,-22.857 24.286,-22.857 13.413,0 24.286,10.233 24.286,22.857 z"
         fill="#f2f2f2"
         stroke="#000000"
         stroke-width="4.053"
         id="path113" />
      <path
         transform="matrix(0.59616,0,0,0.58848,954.59,338.05)"
         d="m 585.71,-96.209 c 0,12.624 -10.873,22.857 -24.286,22.857 -13.413,0 -24.286,-10.233 -24.286,-22.857 0,-12.624 10.873,-22.857 24.286,-22.857 13.413,0 24.286,10.233 24.286,22.857 z"
         fill="#f2f2f2"
         stroke="#000000"
         stroke-width="4.053"
         id="path115" />
      <path
         transform="matrix(0.59616,0,0,0.58848,954.59,397.54)"
         d="m 585.71,-96.209 c 0,12.624 -10.873,22.857 -24.286,22.857 -13.413,0 -24.286,-10.233 -24.286,-22.857 0,-12.624 10.873,-22.857 24.286,-22.857 13.413,0 24.286,10.233 24.286,22.857 z"
         fill="#f2f2f2"
         stroke="#000000"
         stroke-width="4.053"
         id="path117" />
      <path
         transform="matrix(0.59616,0,0,0.58848,954.59,457.03)"
         d="m 585.71,-96.209 c 0,12.624 -10.873,22.857 -24.286,22.857 -13.413,0 -24.286,-10.233 -24.286,-22.857 0,-12.624 10.873,-22.857 24.286,-22.857 13.413,0 24.286,10.233 24.286,22.857 z"
         fill="#f2f2f2"
         stroke="#000000"
         stroke-width="4.053"
         id="path119" />
      <path
         transform="matrix(0.59616,0,0,0.58848,954.59,516.52)"
         d="m 585.71,-96.209 c 0,12.624 -10.873,22.857 -24.286,22.857 -13.413,0 -24.286,-10.233 -24.286,-22.857 0,-12.624 10.873,-22.857 24.286,-22.857 13.413,0 24.286,10.233 24.286,22.857 z"
         fill="#f2f2f2"
         stroke="#000000"
         stroke-width="4.053"
         id="path121" />
      <path
         transform="matrix(0.59616,0,0,0.58848,954.59,576.01)"
         d="m 585.71,-96.209 c 0,12.624 -10.873,22.857 -24.286,22.857 -13.413,0 -24.286,-10.233 -24.286,-22.857 0,-12.624 10.873,-22.857 24.286,-22.857 13.413,0 24.286,10.233 24.286,22.857 z"
         fill="#f2f2f2"
         stroke="#000000"
         stroke-width="4.053"
         id="path123" />
      <path
         transform="matrix(0.59616,0,0,0.58848,954.59,635.5)"
         d="m 585.71,-96.209 c 0,12.624 -10.873,22.857 -24.286,22.857 -13.413,0 -24.286,-10.233 -24.286,-22.857 0,-12.624 10.873,-22.857 24.286,-22.857 13.413,0 24.286,10.233 24.286,22.857 z"
         fill="#f2f2f2"
         stroke="#000000"
         stroke-width="4.053"
         id="path125" />
      <g
         fill="#f2f2f2"
         filter="url(#b)"
         stroke="#000000"
         stroke-width="4.053"
         id="g145">
        <path
           transform="matrix(0.59616,0,0,0.58848,869.6,159.57)"
           d="m 585.71,-96.209 c 0,12.624 -10.873,22.857 -24.286,22.857 -13.413,0 -24.286,-10.233 -24.286,-22.857 0,-12.624 10.873,-22.857 24.286,-22.857 13.413,0 24.286,10.233 24.286,22.857 z"
           id="path127" />
        <path
           transform="matrix(0.59616,0,0,0.58848,869.6,219.06)"
           d="m 585.71,-96.209 c 0,12.624 -10.873,22.857 -24.286,22.857 -13.413,0 -24.286,-10.233 -24.286,-22.857 0,-12.624 10.873,-22.857 24.286,-22.857 13.413,0 24.286,10.233 24.286,22.857 z"
           id="path129" />
        <path
           transform="matrix(0.59616,0,0,0.58848,869.6,278.55)"
           d="m 585.71,-96.209 c 0,12.624 -10.873,22.857 -24.286,22.857 -13.413,0 -24.286,-10.233 -24.286,-22.857 0,-12.624 10.873,-22.857 24.286,-22.857 13.413,0 24.286,10.233 24.286,22.857 z"
           id="path131" />
        <path
           transform="matrix(0.59616,0,0,0.58848,869.6,338.05)"
           d="m 585.71,-96.209 c 0,12.624 -10.873,22.857 -24.286,22.857 -13.413,0 -24.286,-10.233 -24.286,-22.857 0,-12.624 10.873,-22.857 24.286,-22.857 13.413,0 24.286,10.233 24.286,22.857 z"
           id="path133" />
        <path
           transform="matrix(0.59616,0,0,0.58848,869.6,397.54)"
           d="m 585.71,-96.209 c 0,12.624 -10.873,22.857 -24.286,22.857 -13.413,0 -24.286,-10.233 -24.286,-22.857 0,-12.624 10.873,-22.857 24.286,-22.857 13.413,0 24.286,10.233 24.286,22.857 z"
           id="path135" />
        <path
           transform="matrix(0.59616,0,0,0.58848,869.6,457.03)"
           d="m 585.71,-96.209 c 0,12.624 -10.873,22.857 -24.286,22.857 -13.413,0 -24.286,-10.233 -24.286,-22.857 0,-12.624 10.873,-22.857 24.286,-22.857 13.413,0 24.286,10.233 24.286,22.857 z"
           id="path137" />
        <path
           transform="matrix(0.59616,0,0,0.58848,869.6,516.52)"
           d="m 585.71,-96.209 c 0,12.624 -10.873,22.857 -24.286,22.857 -13.413,0 -24.286,-10.233 -24.286,-22.857 0,-12.624 10.873,-22.857 24.286,-22.857 13.413,0 24.286,10.233 24.286,22.857 z"
           id="path139" />
        <path
           transform="matrix(0.59616,0,0,0.58848,869.6,576.01)"
           d="m 585.71,-96.209 c 0,12.624 -10.873,22.857 -24.286,22.857 -13.413,0 -24.286,-10.233 -24.286,-22.857 0,-12.624 10.873,-22.857 24.286,-22.857 13.413,0 24.286,10.233 24.286,22.857 z"
           id="path141" />
        <path
           transform="matrix(0.59616,0,0,0.58848,869.6,635.5)"
           d="m 585.71,-96.209 c 0,12.624 -10.873,22.857 -24.286,22.857 -13.413,0 -24.286,-10.233 -24.286,-22.857 0,-12.624 10.873,-22.857 24.286,-22.857 13.413,0 24.286,10.233 24.286,22.857 z"
           id="path143" />
      </g>
      <g
         transform="translate(84.999)"
         fill="#f2f2f2"
         filter="url(#b)"
         stroke="#000000"
         stroke-width="4.053"
         id="g165">
        <path
           transform="matrix(0.59616,0,0,0.58848,869.6,159.57)"
           d="m 585.71,-96.209 c 0,12.624 -10.873,22.857 -24.286,22.857 -13.413,0 -24.286,-10.233 -24.286,-22.857 0,-12.624 10.873,-22.857 24.286,-22.857 13.413,0 24.286,10.233 24.286,22.857 z"
           id="path147" />
        <path
           transform="matrix(0.59616,0,0,0.58848,869.6,219.06)"
           d="m 585.71,-96.209 c 0,12.624 -10.873,22.857 -24.286,22.857 -13.413,0 -24.286,-10.233 -24.286,-22.857 0,-12.624 10.873,-22.857 24.286,-22.857 13.413,0 24.286,10.233 24.286,22.857 z"
           id="path149" />
        <path
           transform="matrix(0.59616,0,0,0.58848,869.6,278.55)"
           d="m 585.71,-96.209 c 0,12.624 -10.873,22.857 -24.286,22.857 -13.413,0 -24.286,-10.233 -24.286,-22.857 0,-12.624 10.873,-22.857 24.286,-22.857 13.413,0 24.286,10.233 24.286,22.857 z"
           id="path151" />
        <path
           transform="matrix(0.59616,0,0,0.58848,869.6,338.05)"
           d="m 585.71,-96.209 c 0,12.624 -10.873,22.857 -24.286,22.857 -13.413,0 -24.286,-10.233 -24.286,-22.857 0,-12.624 10.873,-22.857 24.286,-22.857 13.413,0 24.286,10.233 24.286,22.857 z"
           id="path153" />
        <path
           transform="matrix(0.59616,0,0,0.58848,869.6,397.54)"
           d="m 585.71,-96.209 c 0,12.624 -10.873,22.857 -24.286,22.857 -13.413,0 -24.286,-10.233 -24.286,-22.857 0,-12.624 10.873,-22.857 24.286,-22.857 13.413,0 24.286,10.233 24.286,22.857 z"
           id="path155" />
        <path
           transform="matrix(0.59616,0,0,0.58848,869.6,457.03)"
           d="m 585.71,-96.209 c 0,12.624 -10.873,22.857 -24.286,22.857 -13.413,0 -24.286,-10.233 -24.286,-22.857 0,-12.624 10.873,-22.857 24.286,-22.857 13.413,0 24.286,10.233 24.286,22.857 z"
           id="path157" />
        <path
           transform="matrix(0.59616,0,0,0.58848,869.6,516.52)"
           d="m 585.71,-96.209 c 0,12.624 -10.873,22.857 -24.286,22.857 -13.413,0 -24.286,-10.233 -24.286,-22.857 0,-12.624 10.873,-22.857 24.286,-22.857 13.413,0 24.286,10.233 24.286,22.857 z"
           id="path159" />
        <path
           transform="matrix(0.59616,0,0,0.58848,869.6,576.01)"
           d="m 585.71,-96.209 c 0,12.624 -10.873,22.857 -24.286,22.857 -13.413,0 -24.286,-10.233 -24.286,-22.857 0,-12.624 10.873,-22.857 24.286,-22.857 13.413,0 24.286,10.233 24.286,22.857 z"
           id="path161" />
        <path
           transform="matrix(0.59616,0,0,0.58848,869.6,635.5)"
           d="m 585.71,-96.209 c 0,12.624 -10.873,22.857 -24.286,22.857 -13.413,0 -24.286,-10.233 -24.286,-22.857 0,-12.624 10.873,-22.857 24.286,-22.857 13.413,0 24.286,10.233 24.286,22.857 z"
           id="path163" />
      </g>
      <g
         fill="none"
         stroke="#000000"
         stroke-linecap="round"
         stroke-width="12.721"
         id="g185">
        <path
           d="m 1197.9,104.66 c 58.827,-29.901 98.722,-0.0311 98.763,0"
           id="path167" />
        <path
           d="m 1197.9,164 c 58.827,-29.901 98.722,-0.0311 98.763,0"
           id="path169" />
        <path
           d="m 1197.9,226.55 c 58.827,-29.901 98.722,-0.0311 98.763,0"
           id="path171" />
        <path
           d="m 1197.9,285.89 c 58.827,-29.901 98.722,-0.0311 98.763,0"
           id="path173" />
        <path
           d="m 1197.9,521.24 c 58.827,-29.901 98.722,-0.0311 98.763,0"
           id="path175" />
        <path
           d="m 1197.9,460.3 c 58.827,-29.901 98.722,-0.0311 98.763,0"
           id="path177" />
        <path
           d="m 1197.9,402.56 c 58.827,-29.901 98.722,-0.0311 98.763,0"
           id="path179" />
        <path
           d="m 1197.9,344.83 c 58.827,-29.901 98.722,-0.0311 98.763,0"
           id="path181" />
        <path
           d="m 1199.5,582.18 c 58.827,-29.901 98.722,-0.0311 98.763,0"
           id="path183" />
      </g>
      <g
         fill="none"
         filter="url(#c)"
         stroke="#e6e6e6"
         stroke-linecap="round"
         stroke-width="2.2"
         id="g205">
        <path
           d="m 1197.9,104.66 c 58.827,-29.901 98.722,-0.0311 98.763,0"
           id="path187" />
        <path
           d="m 1197.9,164 c 58.827,-29.901 98.722,-0.0311 98.763,0"
           id="path189" />
        <path
           d="m 1197.9,226.55 c 58.827,-29.901 98.722,-0.0311 98.763,0"
           id="path191" />
        <path
           d="m 1197.9,285.89 c 58.827,-29.901 98.722,-0.0311 98.763,0"
           id="path193" />
        <path
           d="m 1197.9,521.24 c 58.827,-29.901 98.722,-0.0311 98.763,0"
           id="path195" />
        <path
           d="m 1197.9,460.3 c 58.827,-29.901 98.722,-0.0311 98.763,0"
           id="path197" />
        <path
           d="m 1197.9,402.56 c 58.827,-29.901 98.722,-0.0311 98.763,0"
           id="path199" />
        <path
           d="m 1197.9,344.83 c 58.827,-29.901 98.722,-0.0311 98.763,0"
           id="path201" />
        <path
           d="m 1199.5,582.18 c 58.827,-29.901 98.722,-0.0311 98.763,0"
           id="path203" />
      </g>
      <g
         font-family="Sans"
         font-size="19.904px"
         letter-spacing="0"
         word-spacing="0"
         id="g217">
        <path
           d="m 1117.8,51.979 h 1.8077 c 1.8854,10e-7 3.3303,-0.53778 4.3346,-1.6133 1.0108,-1.0756 1.5161,-2.6176 1.5161,-4.6262 0,-2.0086 -0.5021,-3.5441 -1.5064,-4.6068 -1.0043,-1.0627 -2.4524,-1.5939 -4.3443,-1.5939 H 1117.8 v 12.44 m -3.8195,1.0302 v -1.0302 h 1.8465 v -12.44 h -1.8465 v -1.0399 h 5.773 c 2.5009,1.4e-5 4.448,0.63822 5.841,1.9146 1.3995,1.2764 2.0993,3.0517 2.0993,5.3259 0,2.2807 -0.6998,4.0625 -2.0993,5.3454 -1.3995,1.2829 -3.3465,1.9243 -5.841,1.9243 h -5.773"
           id="path207" />
        <path
           d="m 1136.7583,49.76353 v -2.18675 h -2.3033 c -0.8877,6e-6 -1.5486,0.19114 -1.9827,0.57341 -0.4341,0.38227 -0.6512,0.96865 -0.6511,1.75912 -1e-4,0.7192 0.2202,1.28937 0.6608,1.71052 0.4406,0.42115 1.0367,0.63173 1.7883,0.63173 0.7516,0 1.3444,-0.23001 1.798,-0.69004 0.46,-0.46003 0.69,-1.05936 0.69,-1.79799 m 1.7883,-3.20723 v 5.42313 h 1.5939 v 1.0302 h -3.3822 v -1.11767 c -0.3952,0.47946 -0.852,0.83258 -1.3703,1.05936 -0.5183,0.22678 -1.1242,0.34016 -1.8175,0.34016 -1.1468,-10e-7 -2.0571,-0.30452 -2.731,-0.91358 -0.6739,-0.60906 -1.0107,-1.43191 -1.0107,-2.4686 0,-1.06907 0.3855,-1.89842 1.1565,-2.48803 0.771,-0.58961 1.8596,-0.88441 3.2656,-0.88442 h 2.5074 v -0.70948 c 0,-0.78398 -0.2397,-1.38979 -0.7192,-1.81743 -0.4729,-0.4341 -1.1403,-0.65116 -2.002,-0.65116 -0.7128,10e-6 -1.2797,0.16199 -1.7008,0.48594 -0.4211,0.32395 -0.6836,0.80344 -0.7873,1.43839 h -0.9233 v -2.08956 c 0.622,-0.26564 1.2246,-0.46326 1.8077,-0.59285 0.5896,-0.13605 1.1631,-0.20409 1.7203,-0.2041 1.4319,1.1e-5 2.5204,0.35637 3.2655,1.06908 0.7451,0.71271 1.1274,1.73645 1.1274,3.0906"
           id="path209" />
        <path
           d="m 1142.8424,43.71838 h -1.5745 v -1.03992 h 1.5745 v -3.20723 h 1.798 v 3.20723 h 3.3627 v 1.03992 h -3.3627 v 6.56024 c -10e-5,0.8747 0.084,1.43516 0.2526,1.68137 0.1686,0.24621 0.4795,0.36932 0.9331,0.36932 0.4665,0 0.8066,-0.13606 1.0204,-0.40819 0.2138,-0.27861 0.3272,-0.72567 0.3402,-1.34121 h 1.3509 c -0.052,0.93949 -0.3078,1.62629 -0.7678,2.0604 -0.46,0.43411 -1.1598,0.65116 -2.0992,0.65116 -1.0303,-10e-7 -1.7592,-0.22677 -2.1868,-0.68032 -0.4276,-0.46003 -0.6414,-1.23754 -0.6414,-2.33253 v -6.56024"
           id="path211" />
        <path
           d="m 1159.4908,48.03357 h -7.7071 v 0.07775 c 0,1.39304 0.2624,2.44592 0.7873,3.15863 0.5249,0.71271 1.299,1.05936 2.3228,1.05936 0.784,0 1.4254,-0.2041 1.9243,-0.61229 0.5054,-0.41467 0.8585,-1.02696 1.0594,-1.83687 h 1.4384 c -0.2851,1.13387 -0.8132,1.98589 -1.5842,2.55606 -0.7646,0.57017 -1.7721,0.85526 -3.0226,0.85526 -1.5097,-10e-7 -2.7245,-0.49566 -3.6446,-1.48699 -0.9135,-0.9978 -1.3703,-2.31957 -1.3703,-3.9653 0,-1.63277 0.4503,-2.94805 1.3509,-3.94587 0.9006,-0.99782 2.0831,-1.4967 3.5474,-1.49671 1.5615,1.1e-5 2.7601,0.48272 3.596,1.44811 0.8358,0.95894 1.2699,2.35521 1.3023,4.18884 m -2.109,-1.0302 c -0.039,-1.20513 -0.2948,-2.11223 -0.7678,-2.72129 -0.4665,-0.61552 -1.1403,-0.92328 -2.0215,-0.92329 -0.8229,1e-5 -1.4708,0.30777 -1.9438,0.92329 -0.473,0.61552 -0.7613,1.52263 -0.865,2.72129 h 5.5981"
           id="path213" />
        <path
           d="m 1162.5522,51.99887 c 0,-0.36284 0.1231,-0.6706 0.3694,-0.92329 0.2463,-0.25269 0.5604,-0.37903 0.9233,-0.37904 0.3629,-10e-6 0.6673,0.12635 0.9135,0.37904 0.2462,0.25269 0.3791,0.56046 0.3791,0.92329 0,0.36283 -0.1231,0.6706 -0.3694,0.92329 -0.2463,0.25269 -0.5539,0.36932 -0.9232,0.36932 -0.3693,0 -0.6771,-0.12311 -0.9233,-0.36932 -0.2462,-0.24621 -0.3694,-0.56045 -0.3694,-0.92329 m 0,-6.33671 c 0,-0.36283 0.1231,-0.66736 0.3694,-0.91357 0.2463,-0.24621 0.5604,-0.37903 0.9233,-0.37904 0.3693,9e-6 0.677,0.12312 0.9232,0.36932 0.2462,0.2462 0.3694,0.55398 0.3694,0.92329 0,0.36931 -0.1231,0.67709 -0.3694,0.92329 -0.2463,0.2462 -0.5539,0.36932 -0.9232,0.36932 -0.3629,6e-6 -0.6706,-0.1231 -0.9233,-0.36932 -0.2527,-0.24622 -0.3694,-0.56045 -0.3694,-0.92329"
           id="path215" />
      </g>
      <g
         font-family="Sans"
         font-size="19.904px"
         letter-spacing="0"
         word-spacing="0"
         id="g229">
        <path
           d="m 1538,53.583 h 1.8077 c 1.8855,1e-6 3.3303,-0.53778 4.3346,-1.6133 1.0108,-1.0756 1.5162,-2.6176 1.5162,-4.6262 0,-2.0086 -0.5022,-3.5441 -1.5065,-4.6068 -1.0043,-1.0627 -2.4524,-1.5939 -4.3443,-1.5939 H 1538 v 12.44 m -3.8195,1.0302 v -1.0302 h 1.8466 v -12.44 h -1.8466 v -1.0399 h 5.773 c 2.501,1.5e-5 4.448,0.63822 5.841,1.9146 1.3995,1.2764 2.0993,3.0517 2.0993,5.3259 0,2.2807 -0.6998,4.0625 -2.0993,5.3454 -1.3995,1.2829 -3.3465,1.9243 -5.841,1.9243 h -5.773"
           id="path219" />
        <path
           d="m 1556.941,51.36728 v -2.18675 h -2.3034 c -0.8877,6e-6 -1.5486,0.19114 -1.9827,0.57341 -0.4341,0.38227 -0.6511,0.96865 -0.6511,1.75912 0,0.7192 0.2203,1.28937 0.6609,1.71052 0.4406,0.42115 1.0366,0.63173 1.7882,0.63173 0.7516,0 1.3445,-0.23001 1.798,-0.69004 0.46,-0.46003 0.69,-1.05936 0.6901,-1.79799 m 1.7882,-3.20723 v 5.42313 h 1.5939 v 1.0302 h -3.3821 v -1.11767 c -0.3953,0.47947 -0.8521,0.83258 -1.3704,1.05936 -0.5183,0.22678 -1.1242,0.34016 -1.8174,0.34016 -1.1469,-10e-7 -2.0572,-0.30452 -2.731,-0.91358 -0.6738,-0.60906 -1.0108,-1.43191 -1.0108,-2.4686 0,-1.06907 0.3855,-1.89842 1.1565,-2.48803 0.771,-0.58961 1.8596,-0.88441 3.2656,-0.88442 h 2.5075 v -0.70948 c -10e-5,-0.78398 -0.2398,-1.38979 -0.7192,-1.81743 -0.473,-0.4341 -1.1404,-0.65116 -2.0021,-0.65116 -0.7128,10e-6 -1.2797,0.16199 -1.7008,0.48594 -0.4211,0.32395 -0.6836,0.80344 -0.7873,1.43839 h -0.9233 V 44.7973 c 0.6221,-0.26564 1.2246,-0.46326 1.8078,-0.59285 0.5896,-0.13605 1.163,-0.20409 1.7202,-0.2041 1.4319,1.1e-5 2.5204,0.35637 3.2655,1.06908 0.7451,0.71271 1.1274,1.73645 1.1274,3.0906"
           id="path221" />
        <path
           d="m 1563.025,45.32214 h -1.5745 v -1.03992 h 1.5745 v -3.20723 h 1.798 v 3.20723 h 3.3627 v 1.03992 h -3.3627 v 6.56024 c 0,0.8747 0.084,1.43516 0.2527,1.68137 0.1687,0.24621 0.4794,0.36932 0.933,0.36932 0.4665,0 0.8066,-0.13606 1.0205,-0.40819 0.2138,-0.27861 0.3271,-0.72567 0.3401,-1.34121 h 1.3509 c -0.052,0.93949 -0.3077,1.62629 -0.7678,2.0604 -0.4601,0.43411 -1.1597,0.65116 -2.0992,0.65116 -1.0302,-10e-7 -1.7592,-0.22677 -2.1868,-0.68032 -0.4276,-0.46003 -0.6414,-1.23754 -0.6414,-2.33253 v -6.56024"
           id="path223" />
        <path
           d="m 1579.6734,49.63732 h -7.7071 v 0.07775 c 0,1.39304 0.2625,2.44592 0.7873,3.15863 0.5248,0.71271 1.2991,1.05936 2.3228,1.05936 0.784,0 1.4254,-0.2041 1.9243,-0.61229 0.5054,-0.41467 0.8585,-1.02696 1.0594,-1.83687 h 1.4384 c -0.2851,1.13387 -0.8132,1.98589 -1.5842,2.55606 -0.7646,0.57017 -1.7721,0.85526 -3.0226,0.85526 -1.5096,-1e-6 -2.7245,-0.49566 -3.6446,-1.48699 -0.9135,-0.9978 -1.3703,-2.31957 -1.3703,-3.9653 0,-1.63277 0.4503,-2.94805 1.3509,-3.94586 0.9006,-0.99781 2.0831,-1.4967 3.5474,-1.49671 1.5615,1.1e-5 2.7602,0.48272 3.596,1.44811 0.8358,0.95894 1.2699,2.35521 1.3023,4.18884 m -2.109,-1.0302 c -0.039,-1.20513 -0.2948,-2.11223 -0.7678,-2.72129 -0.4665,-0.61552 -1.1403,-0.92328 -2.0215,-0.92329 -0.8229,10e-6 -1.4708,0.30777 -1.9438,0.92329 -0.473,0.61552 -0.7613,1.52263 -0.865,2.72129 h 5.5981"
           id="path225" />
        <path
           d="m 1582.7349,53.60262 c 0,-0.36284 0.1231,-0.6706 0.3693,-0.92329 0.2462,-0.25269 0.5604,-0.37903 0.9233,-0.37904 0.3629,-10e-6 0.6673,0.12635 0.9135,0.37904 0.2462,0.25269 0.3791,0.56046 0.3791,0.92329 0,0.36283 -0.1231,0.6706 -0.3693,0.92329 -0.2462,0.25269 -0.554,0.36932 -0.9233,0.36932 -0.3693,0 -0.6771,-0.12311 -0.9233,-0.36932 -0.2462,-0.24621 -0.3693,-0.56045 -0.3693,-0.92329 m 0,-6.33671 c 0,-0.36283 0.1231,-0.66736 0.3693,-0.91357 0.2462,-0.24621 0.5604,-0.37903 0.9233,-0.37904 0.3693,8e-6 0.6771,0.12311 0.9233,0.36932 0.2462,0.24621 0.3693,0.55398 0.3693,0.92329 0,0.36931 -0.1231,0.67709 -0.3693,0.92329 -0.2462,0.2462 -0.554,0.36932 -0.9233,0.36932 -0.3629,6e-6 -0.6706,-0.1231 -0.9233,-0.36932 -0.2527,-0.24622 -0.3693,-0.56045 -0.3693,-0.92329"
           id="path227" />
      </g>
      <g
         font-family="Sans"
         font-size="40px"
         letter-spacing="0"
         word-spacing="0"
         id="g261">
        <path
           d="m 903.2,647.51 4.3066,11.191 4.2969,-11.191 h -1.6406 v -1.0449 h 4.2774 v 1.0449 h -1.416 l -5.2051,13.535 h -1.6797 l -5.1758,-13.535 h -1.4551 v -1.0449 h 5.3125 V 647.51 H 903.2"
           id="path231" />
        <path
           d="m 923.16,656.05 h -7.7441 v 0.0781 c -10e-6,1.3998 0.26367,2.4577 0.79101,3.1738 0.52734,0.70964 1.3053,1.0645 2.334,1.0644 0.78775,10e-6 1.4323,-0.20507 1.9336,-0.61523 0.50781,-0.41666 0.86262,-1.0319 1.0644,-1.8457 h 1.4453 c -0.28647,1.1393 -0.81707,1.9954 -1.5918,2.5684 -0.77473,0.573 -1.7806,0.85937 -3.0371,0.85937 -1.5169,0 -2.7376,-0.49805 -3.6621,-1.4941 -0.9245,-0.99605 -1.377,-2.3307 -1.377,-3.9844 0,-1.6406 0.45247,-2.9622 1.3574,-3.9648 0.90493,-1.0026 2.0931,-1.5039 3.5644,-1.5039 1.569,10e-6 2.7734,0.48503 3.6133,1.4551 0.83984,0.96355 1.276,2.3666 1.3086,4.209 m -2.1191,-1.0352 c -0.0391,-1.2109 -0.29623,-2.1224 -0.77149,-2.7344 -0.46875,-0.61848 -1.1458,-0.92773 -2.0312,-0.92774 -0.82682,10e-6 -1.4779,0.30926 -1.9531,0.92774 -0.4752,0.61848 -0.76498,1.53 -0.86914,2.7344 h 5.625"
           id="path233" />
        <path
           d="m 933.71753,650.64667 v 2.59765 h -1.03516 c -0.0326,-0.51431 -0.17579,-0.89843 -0.42968,-1.15234 -0.25389,-0.25391 -0.62501,-0.38085 -1.11329,-0.38086 -0.88542,10e-6 -1.56576,0.306 -2.04101,0.91797 -0.46876,0.61199 -0.70313,1.49089 -0.70313,2.63672 v 4.74609 h 2.08008 v 1.03516 h -5.49805 v -1.03516 h 1.6211 v -8.32031 h -1.71875 v -1.02539 h 3.51562 v 1.8457 c 0.35156,-0.72265 0.80404,-1.2565 1.35743,-1.60156 0.55339,-0.34506 1.2272,-0.52733 2.02148,-0.52734 0.29296,10e-6 0.59895,0.0228 0.91797,0.0684 0.32551,0.0456 0.66731,0.11069 1.02539,0.19532"
           id="path235" />
        <path
           d="m 935.67065,647.44354 c 0,-0.29946 0.10742,-0.55988 0.32227,-0.78125 0.22135,-0.22134 0.48502,-0.33201 0.79102,-0.33203 0.29947,2e-5 0.55663,0.11069 0.77148,0.33203 0.22135,0.22137 0.33203,0.48179 0.33203,0.78125 0,0.30601 -0.10742,0.56642 -0.32226,0.78125 -0.21484,0.21483 -0.47527,0.32228 -0.78125,0.32227 -0.30598,-10e-6 -0.56967,-0.10741 -0.79102,-0.32227 -0.21485,-0.21483 -0.32227,-0.47524 -0.32227,-0.78125 m 2.29493,12.56836 h 1.69921 v 1.03516 h -5.21484 v -1.03516 h 1.71875 v -8.30078 h -1.71875 v -1.04492 h 3.51563 v 9.3457"
           id="path237" />
        <path
           d="m 950.59,648.49 -0.91797,-0.01 c -0.0195,-0.55988 -0.22787,-0.97655 -0.625,-1.25 -0.39714,-0.27994 -0.9961,-0.41991 -1.7969,-0.41992 -0.9961,10e-6 -1.7253,0.23113 -2.1875,0.69336 -0.4622,0.46223 -0.69337,1.1914 -0.69336,2.1875 v 0.97656 h 6.9434 v 9.3457 h 1.6992 v 1.0352 h -5.2246 v -1.0352 h 1.7285 v -8.3008 h -5.1465 v 8.3008 h 1.6992 v 1.0352 h -5.2148 v -1.0352 h 1.7188 v -8.3008 h -1.7188 v -1.0449 h 1.7188 V 649.73 c 0,-1.2825 0.38086,-2.2493 1.1426,-2.9004 0.76174,-0.6511 1.888,-0.97655 3.3789,-0.97656 0.56639,1e-5 1.1458,0.0423 1.7383,0.12695 0.5925,0.0847 1.1784,0.21486 1.7578,0.39062 v 2.1191"
           id="path239" />
        <path
           d="m 964.33,656.05 h -7.7441 v 0.0781 c 0,1.3998 0.26367,2.4577 0.79102,3.1738 0.52734,0.70964 1.3053,1.0645 2.334,1.0644 0.78776,10e-6 1.4323,-0.20507 1.9336,-0.61523 0.5078,-0.41666 0.86262,-1.0319 1.0644,-1.8457 h 1.4453 c -0.28647,1.1393 -0.81706,1.9954 -1.5918,2.5684 -0.77474,0.573 -1.7806,0.85937 -3.0371,0.85937 -1.5169,0 -2.7376,-0.49805 -3.6621,-1.4941 -0.9245,-0.99605 -1.377,-2.3307 -1.377,-3.9844 0,-1.6406 0.45248,-2.9622 1.3574,-3.9648 0.90492,-1.0026 2.0931,-1.5039 3.5644,-1.5039 1.569,10e-6 2.7734,0.48503 3.6133,1.4551 0.83983,0.96355 1.276,2.3666 1.3086,4.209 m -2.1191,-1.0352 c -0.0391,-1.2109 -0.29623,-2.1224 -0.77148,-2.7344 -0.46876,-0.61848 -1.1458,-0.92773 -2.0312,-0.92774 -0.82683,10e-6 -1.4779,0.30926 -1.9531,0.92774 -0.4752,0.61848 -0.76497,1.53 -0.86914,2.7344 h 5.625"
           id="path241" />
        <path
           d="m 975.83,660.01 h 1.7188 v 1.0352 h -3.5156 v -1.6211 c -0.35157,0.65105 -0.80079,1.1328 -1.3477,1.4453 -0.54037,0.30599 -1.2109,0.45898 -2.0117,0.45898 -1.276,0 -2.321,-0.50456 -3.1348,-1.5137 -0.80729,-1.0156 -1.2109,-2.3372 -1.2109,-3.9648 0,-1.6276 0.40365,-2.946 1.2109,-3.9551 0.80725,-1.0091 1.8522,-1.5137 3.1348,-1.5137 0.80078,10e-6 1.4714,0.15626 2.0117,0.46875 0.54687,0.306 0.99609,0.78451 1.3477,1.4355 v -5.4004 h -1.6992 v -1.0352 h 3.4961 v 14.16 m -1.7969,-3.6426 v -1.0254 c -10e-6,-1.2435 -0.24089,-2.194 -0.72266,-2.8516 -0.48177,-0.6576 -1.1686,-0.98632 -2.0801,-0.98633 -0.92448,1e-5 -1.6244,0.36459 -2.0996,1.0938 -0.46876,0.72918 -0.70313,1.8132 -0.70313,3.252 0,1.4323 0.23437,2.5163 0.70313,3.252 0.47525,0.73568 1.1751,1.1035 2.0996,1.1035 0.91146,10e-6 1.6048,-0.32552 2.0801,-0.97656 0.48177,-0.65755 0.72265,-1.6113 0.72266,-2.8613"
           id="path243" />
        <path
           d="m 989.45,660.01 h 2.9199 c 1.1719,0 2.028,-0.2539 2.5684,-0.76172 0.5404,-0.50782 0.81054,-1.3151 0.81055,-2.4219 -10e-6,-1.1003 -0.27019,-1.901 -0.81055,-2.4024 -0.53386,-0.5078 -1.39,-0.76171 -2.5684,-0.76171 H 989.45 v 6.3476 m 0,-7.3828 h 2.4805 c 1.0677,10e-6 1.8457,-0.20507 2.334,-0.61524 0.4883,-0.41017 0.74218,-1.0579 0.74219,-1.9434 10e-6,-0.8855 -0.2474,-1.5397 -0.74219,-1.9434 -0.48829,-0.41015 -1.2663,-0.61522 -2.334,-0.61524 H 989.45 v 5.1172 m -3.8379,8.418 v -1.0352 h 1.8555 v -12.5 h -1.8555 v -1.0449 h 7.1973 c 1.4713,10e-6 2.5781,0.30275 3.3203,0.9082 0.74868,0.59897 1.123,1.4974 1.123,2.6953 -2e-5,0.86589 -0.26043,1.556 -0.78125,2.0703 -0.51434,0.51433 -1.2696,0.83008 -2.2656,0.94726 1.237,0.15626 2.1745,0.5534 2.8125,1.1914 0.64452,0.63152 0.96678,1.4811 0.9668,2.5488 -2e-5,1.4453 -0.45574,2.5098 -1.3672,3.1934 -0.91146,0.6836 -2.334,1.0254 -4.2676,1.0254 h -6.7383"
           id="path245" />
        <path
           d="m 1003.5125,662.95135 0.6835,-1.72851 -3.8769,-9.51172 h -1.18165 v -1.04492 h 4.77535 v 1.04492 h -1.6601 l 2.9199,7.13867 2.9199,-7.13867 h -1.5527 v -1.04492 h 3.8965 v 1.04492 h -1.1621 l -4.7559,11.67969 c -0.3255,0.80729 -0.6868,1.35742 -1.084,1.65039 -0.3971,0.29947 -0.957,0.44921 -1.6797,0.44922 -0.306,-10e-6 -0.6217,-0.026 -0.9472,-0.0781 -0.319,-0.0521 -0.6413,-0.12695 -0.96682,-0.22461 v -1.98242 h 0.91792 c 0.039,0.44271 0.1498,0.75846 0.3321,0.94727 0.1888,0.19531 0.4785,0.29296 0.8691,0.29297 0.3581,-10e-6 0.6445,-0.10092 0.8594,-0.30274 0.2213,-0.19531 0.4525,-0.59245 0.6934,-1.19141"
           id="path247" />
        <path
           d="m 1012.5652,660.03143 c 0,-0.36458 0.1237,-0.67382 0.3711,-0.92773 0.2474,-0.25391 0.5631,-0.38086 0.9277,-0.38086 0.3646,0 0.6706,0.12695 0.918,0.38086 0.2474,0.25391 0.3808,0.56315 0.3808,0.92773 0,0.36458 -0.1237,0.67383 -0.3711,0.92774 -0.2474,0.25391 -0.5566,0.37109 -0.9277,0.37109 -0.3711,0 -0.6803,-0.1237 -0.9277,-0.37109 -0.2474,-0.24739 -0.3711,-0.56315 -0.3711,-0.92774 m 0,-6.36718 c 0,-0.36458 0.1237,-0.67057 0.3711,-0.91797 0.2474,-0.2474 0.5631,-0.38085 0.9277,-0.38086 0.3711,10e-6 0.6803,0.1237 0.9277,0.37109 0.2474,0.24739 0.3711,0.55665 0.3711,0.92774 0,0.37109 -0.1237,0.68034 -0.3711,0.92773 -0.2474,0.24739 -0.5566,0.3711 -0.9277,0.37109 -0.3646,10e-6 -0.6738,-0.12369 -0.9277,-0.37109 -0.2539,-0.2474 -0.3711,-0.56314 -0.3711,-0.92773"
           id="path249" />
        <path
           d="m 1101.8718,660.34393 v -3.32031 l 1.1231,0.01 c 0.033,1.10677 0.3515,1.92708 0.957,2.46093 0.6055,0.53385 1.5397,0.79102 2.7832,0.79102 1.1589,0 2.041,-0.22786 2.6465,-0.68359 0.6055,-0.45573 0.918,-1.13281 0.918,-2.01172 0,-0.70312 -0.1856,-1.24349 -0.5567,-1.6211 -0.3646,-0.3776 -1.1393,-0.74543 -2.3242,-1.10351 l -1.9238,-0.57617 c -1.3933,-0.42317 -2.3763,-0.95052 -2.9492,-1.58204 -0.5729,-0.63152 -0.8497,-1.49738 -0.8497,-2.59765 0,-1.23697 0.4395,-2.19725 1.3184,-2.88086 0.8789,-0.68361 2.1126,-1.02538 3.7012,-1.02539 0.6771,10e-6 1.4192,0.0749 2.2265,0.22461 0.8073,0.14324 1.6667,0.35483 2.5782,0.63476 v 3.10547 h -1.1036 c -0.1106,-1.02863 -0.4557,-1.77082 -1.0351,-2.22656 -0.5729,-0.46223 -1.4486,-0.69335 -2.627,-0.69336 -1.0286,10e-6 -1.8131,0.2116 -2.3535,0.63477 -0.5338,0.41668 -0.8008,1.0254 -0.8008,1.82617 0,0.69662 0.2019,1.2435 0.6055,1.64062 0.4036,0.39712 1.2598,0.79103 2.5684,1.18164 l 1.8066,0.53711 c 1.3216,0.39715 2.2624,0.90496 2.8223,1.52344 0.5664,0.61198 0.8496,1.43555 0.8496,2.4707 0,1.41277 -0.4525,2.47722 -1.3574,3.19336 -0.905,0.71615 -2.2526,1.07422 -4.043,1.07422 -0.8008,0 -1.6178,-0.0814 -2.4512,-0.24414 -0.8334,-0.16274 -1.6699,-0.41016 -2.5293,-0.74219"
           id="path251" />
        <path
           d="m 1115.6707,647.44354 c 0,-0.29946 0.1074,-0.55988 0.3222,-0.78125 0.2214,-0.22134 0.485,-0.33201 0.791,-0.33203 0.2995,2e-5 0.5567,0.11069 0.7715,0.33203 0.2214,0.22137 0.332,0.48179 0.3321,0.78125 -10e-5,0.30601 -0.1075,0.56642 -0.3223,0.78125 -0.2148,0.21483 -0.4753,0.32228 -0.7813,0.32227 -0.306,-10e-6 -0.5696,-0.10741 -0.791,-0.32227 -0.2148,-0.21483 -0.3222,-0.47524 -0.3222,-0.78125 m 2.2949,12.56836 h 1.6992 v 1.03516 h -5.2148 v -1.03516 h 1.7187 v -8.30078 h -1.7187 v -1.04492 h 3.5156 v 9.3457"
           id="path253" />
        <path
           d="m 1130.6316,651.71112 v 9.11133 c 0,1.49088 -0.4102,2.63997 -1.2305,3.44726 -0.8203,0.80729 -1.9889,1.2207 -3.5058,1.22071 -0.6836,-10e-6 -1.3379,-0.0619 -1.9629,-0.18555 -0.625,-0.12365 -1.224,-0.30925 -1.7969,-0.55664 v -2.17773 h 0.9375 c 0.1172,0.67708 0.3939,1.17187 0.8301,1.48437 0.4362,0.3125 1.0612,0.46875 1.875,0.46875 1.0547,0 1.8261,-0.29948 2.3144,-0.89844 0.4948,-0.59245 0.7422,-1.52669 0.7422,-2.80273 v -1.39649 c -0.3516,0.65105 -0.8008,1.13282 -1.3476,1.44532 -0.5404,0.30599 -1.211,0.45898 -2.0118,0.45898 -1.276,0 -2.3209,-0.50456 -3.1347,-1.51367 -0.8073,-1.01562 -1.211,-2.33724 -1.211,-3.96484 0,-1.6276 0.4037,-2.94596 1.211,-3.95508 0.8073,-1.00912 1.8522,-1.51366 3.1347,-1.51367 0.8008,10e-6 1.4714,0.15626 2.0118,0.46875 0.5468,0.306 0.996,0.78451 1.3476,1.43554 v -1.62109 h 3.5156 v 1.04492 h -1.7187 m -1.7969,3.63281 c 0,-1.24348 -0.2409,-2.194 -0.7226,-2.85156 -0.4817,-0.65756 -1.1687,-0.98632 -2.0801,-0.98633 -0.9245,10e-6 -1.6244,0.36459 -2.0996,1.09375 -0.4688,0.72918 -0.7032,1.81316 -0.7032,3.25196 0,1.43229 0.2344,2.51627 0.7032,3.25195 0.4752,0.73568 1.1751,1.10352 2.0996,1.10351 0.9114,10e-6 1.6048,-0.32552 2.0801,-0.97656 0.4817,-0.65755 0.7226,-1.61132 0.7226,-2.86133 v -1.02539"
           id="path255" />
        <path
           d="m 1133.7664,661.04706 v -1.03516 h 1.6211 v -8.30078 h -1.7188 v -1.04492 h 3.5156 v 1.8457 c 0.3321,-0.70311 0.7617,-1.23371 1.2891,-1.5918 0.5274,-0.35809 1.1523,-0.53709 1.8555,-0.5371 1.1458,10e-6 1.9889,0.32878 2.5293,0.98632 0.5404,0.65754 0.8105,1.68295 0.8105,3.07618 v 5.5664 h 1.6016 v 1.03516 h -4.961 v -1.03516 h 1.5528 v -5 c 0,-1.26952 -0.1563,-2.13866 -0.4688,-2.60742 -0.3125,-0.47525 -0.8626,-0.71288 -1.6504,-0.71289 -0.8333,10e-6 -1.4681,0.306 -1.9043,0.91797 -0.4362,0.61197 -0.6543,1.49089 -0.6543,2.65625 v 4.74609 h 1.5625 v 1.03516 h -4.9804"
           id="path257" />
        <path
           d="m 1147.9167,660.03143 c 0,-0.36458 0.1237,-0.67382 0.3711,-0.92773 0.2474,-0.25391 0.5632,-0.38086 0.9278,-0.38086 0.3646,0 0.6705,0.12695 0.9179,0.38086 0.2474,0.25391 0.3809,0.56315 0.3809,0.92773 0,0.36458 -0.1237,0.67383 -0.3711,0.92774 -0.2474,0.25391 -0.5566,0.37109 -0.9277,0.37109 -0.3711,0 -0.6804,-0.1237 -0.9278,-0.37109 -0.2474,-0.24739 -0.3711,-0.56315 -0.3711,-0.92774 m 0,-6.36718 c 0,-0.36458 0.1237,-0.67057 0.3711,-0.91797 0.2474,-0.2474 0.5632,-0.38085 0.9278,-0.38086 0.3711,10e-6 0.6803,0.1237 0.9277,0.37109 0.2474,0.24739 0.3711,0.55665 0.3711,0.92774 0,0.37109 -0.1237,0.68034 -0.3711,0.92773 -0.2474,0.24739 -0.5566,0.3711 -0.9277,0.37109 -0.3646,10e-6 -0.6739,-0.12369 -0.9278,-0.37109 -0.2539,-0.2474 -0.3711,-0.56314 -0.3711,-0.92773"
           id="path259" />
      </g>
      <g
         font-family="Sans"
         font-size="40px"
         letter-spacing="0"
         word-spacing="0"
         id="g293">
        <path
           d="m 1360.3,650.72 4.3066,11.191 4.2969,-11.191 h -1.6406 v -1.0449 h 4.2773 v 1.0449 h -1.416 l -5.2051,13.535 h -1.6796 l -5.1758,-13.535 h -1.4551 v -1.0449 h 5.3125 V 650.72 H 1360.3"
           id="path263" />
        <path
           d="m 1380.2297,659.25458 h -7.7441 v 0.0781 c 0,1.39975 0.2637,2.45769 0.791,3.17383 0.5274,0.70964 1.3053,1.06445 2.334,1.06445 0.7877,0 1.4323,-0.20507 1.9336,-0.61523 0.5078,-0.41667 0.8626,-1.0319 1.0644,-1.8457 h 1.4454 c -0.2865,1.13932 -0.8171,1.99544 -1.5918,2.56836 -0.7747,0.57292 -1.7806,0.85937 -3.0372,0.85937 -1.5169,0 -2.7376,-0.49805 -3.6621,-1.49414 -0.9245,-0.99609 -1.3769,-2.33073 -1.3769,-3.98437 0,-1.64062 0.4525,-2.96224 1.3574,-3.96485 0.905,-1.00259 2.0931,-1.50389 3.5645,-1.5039 1.569,10e-6 2.7734,0.48503 3.6132,1.45507 0.8399,0.96355 1.2761,2.36655 1.3086,4.20899 m -2.1191,-1.03516 c -0.039,-1.21093 -0.2962,-2.12239 -0.7715,-2.73437 -0.4687,-0.61848 -1.1458,-0.92773 -2.0312,-0.92774 -0.8269,1e-5 -1.4779,0.30926 -1.9532,0.92774 -0.4753,0.61848 -0.7649,1.52995 -0.8691,2.73437 h 5.625"
           id="path265" />
        <path
           d="m 1390.7864,653.85419 v 2.59765 h -1.0352 c -0.033,-0.51431 -0.1758,-0.89843 -0.4297,-1.15234 -0.2539,-0.25391 -0.625,-0.38085 -1.1132,-0.38086 -0.8855,10e-6 -1.5658,0.306 -2.0411,0.91797 -0.4687,0.61199 -0.7031,1.49089 -0.7031,2.63672 v 4.74609 h 2.0801 v 1.03516 h -5.4981 v -1.03516 h 1.6211 v -8.32031 h -1.7187 v -1.02539 h 3.5156 v 1.8457 c 0.3516,-0.72265 0.804,-1.2565 1.3574,-1.60156 0.5534,-0.34506 1.2272,-0.52733 2.0215,-0.52734 0.293,10e-6 0.599,0.0228 0.918,0.0684 0.3255,0.0456 0.6673,0.11069 1.0254,0.19532"
           id="path267" />
        <path
           d="m 1392.7395,650.65106 c 0,-0.29946 0.1074,-0.55988 0.3223,-0.78125 0.2213,-0.22134 0.485,-0.33201 0.791,-0.33203 0.2995,2e-5 0.5566,0.11069 0.7715,0.33203 0.2213,0.22137 0.332,0.48179 0.332,0.78125 0,0.306 -0.1074,0.56642 -0.3223,0.78125 -0.2149,0.21483 -0.4752,0.32228 -0.7812,0.32227 -0.306,-1e-5 -0.5697,-0.10741 -0.791,-0.32227 -0.2149,-0.21483 -0.3223,-0.47525 -0.3223,-0.78125 m 2.2949,12.56836 h 1.6992 v 1.03516 h -5.2148 v -1.03516 h 1.7187 v -8.30078 h -1.7187 v -1.04492 h 3.5156 v 9.3457"
           id="path269" />
        <path
           d="m 1407.6614,651.69598 -0.918,-0.01 c -0.02,-0.55988 -0.2279,-0.97655 -0.625,-1.25 -0.3971,-0.27994 -0.9961,-0.41991 -1.7969,-0.41992 -0.9961,10e-6 -1.7252,0.23113 -2.1875,0.69336 -0.4623,0.46223 -0.6933,1.19141 -0.6933,2.1875 v 0.97656 h 6.9433 v 9.3457 h 1.6993 v 1.03516 h -5.2247 v -1.03516 h 1.7286 v -8.30078 h -5.1465 v 8.30078 h 1.6992 v 1.03516 h -5.2149 v -1.03516 h 1.7188 v -8.30078 h -1.7188 v -1.04492 h 1.7188 v -0.9375 c 0,-1.28254 0.3809,-2.24934 1.1426,-2.90039 0.7617,-0.65105 1.888,-0.97655 3.3789,-0.97656 0.5664,10e-6 1.1458,0.0423 1.7383,0.12695 0.5925,0.0847 1.1783,0.21486 1.7578,0.39062 v 2.11914"
           id="path271" />
        <path
           d="m 1421.4016,659.25458 h -7.7441 v 0.0781 c 0,1.39975 0.2636,2.45769 0.791,3.17383 0.5273,0.70964 1.3053,1.06445 2.334,1.06445 0.7877,0 1.4323,-0.20507 1.9336,-0.61523 0.5078,-0.41667 0.8626,-1.0319 1.0644,-1.8457 h 1.4453 c -0.2864,1.13932 -0.817,1.99544 -1.5918,2.56836 -0.7748,0.57292 -1.7806,0.85937 -3.0371,0.85937 -1.5169,0 -2.7376,-0.49805 -3.6621,-1.49414 -0.9245,-0.99609 -1.3769,-2.33073 -1.3769,-3.98437 0,-1.64062 0.4524,-2.96224 1.3574,-3.96485 0.905,-1.00261 2.0931,-1.50389 3.5644,-1.5039 1.569,10e-6 2.7735,0.48503 3.6133,1.45507 0.8399,0.96355 1.276,2.36655 1.3086,4.20899 m -2.1191,-1.03516 c -0.039,-1.21093 -0.2963,-2.12239 -0.7715,-2.73437 -0.4688,-0.61848 -1.1459,-0.92773 -2.0313,-0.92774 -0.8268,1e-5 -1.4778,0.30926 -1.9531,0.92774 -0.4753,0.61848 -0.765,1.52995 -0.8691,2.73437 h 5.625"
           id="path273" />
        <path
           d="m 1432.8958,663.21942 h 1.7187 v 1.03516 h -3.5156 v -1.6211 c -0.3516,0.65105 -0.8008,1.13282 -1.3477,1.44532 -0.5404,0.30599 -1.2109,0.45898 -2.0117,0.45898 -1.276,0 -2.321,-0.50456 -3.1348,-1.51367 -0.8073,-1.01562 -1.2109,-2.33724 -1.2109,-3.96484 0,-1.6276 0.4036,-2.94596 1.2109,-3.95508 0.8073,-1.00912 1.8522,-1.51366 3.1348,-1.51367 0.8008,10e-6 1.4713,0.15626 2.0117,0.46875 0.5469,0.30599 0.9961,0.78451 1.3477,1.43554 v -5.40039 h -1.6992 v -1.03515 h 3.4961 v 14.16015 m -1.7969,-3.64258 v -1.02539 c 0,-1.24348 -0.2409,-2.194 -0.7227,-2.85156 -0.4818,-0.65756 -1.1686,-0.98632 -2.0801,-0.98633 -0.9244,10e-6 -1.6243,0.36459 -2.0996,1.09375 -0.4687,0.72918 -0.7031,1.81316 -0.7031,3.25196 0,1.43229 0.2344,2.51627 0.7031,3.25195 0.4753,0.73568 1.1752,1.10351 2.0996,1.10351 0.9115,0 1.6049,-0.32552 2.0801,-0.97656 0.4818,-0.65755 0.7227,-1.61132 0.7227,-2.86133"
           id="path275" />
        <path
           d="m 1446.5188,663.21942 h 2.9199 c 1.1719,0 2.028,-0.2539 2.5684,-0.76172 0.5404,-0.50782 0.8105,-1.3151 0.8105,-2.42187 0,-1.10026 -0.2702,-1.90104 -0.8105,-2.40235 -0.5339,-0.5078 -1.39,-0.76171 -2.5684,-0.76171 h -2.9199 v 6.34765 m 0,-7.38281 h 2.4805 c 1.0677,1e-5 1.8457,-0.20507 2.334,-0.61524 0.4883,-0.41017 0.7421,-1.05793 0.7421,-1.94335 0,-0.88542 -0.2474,-1.53971 -0.7421,-1.94336 -0.4883,-0.41015 -1.2663,-0.61523 -2.334,-0.61524 h -2.4805 v 5.11719 m -3.8379,8.41797 v -1.03516 h 1.8555 v -12.5 h -1.8555 v -1.04492 h 7.1973 c 1.4713,1e-5 2.5781,0.30275 3.3203,0.9082 0.7487,0.59897 1.123,1.49741 1.123,2.69532 0,0.86589 -0.2604,1.55599 -0.7812,2.07031 -0.5144,0.51433 -1.2696,0.83008 -2.2656,0.94726 1.2369,0.15626 2.1744,0.5534 2.8125,1.19141 0.6445,0.63152 0.9667,1.48112 0.9668,2.54883 -10e-5,1.44531 -0.4558,2.50976 -1.3672,3.19336 -0.9114,0.6836 -2.334,1.02539 -4.2676,1.02539 h -6.7383"
           id="path277" />
        <path
           d="m 1460.5813,666.15887 0.6836,-1.72851 -3.877,-9.51172 h -1.1816 v -1.04492 h 4.7754 v 1.04492 h -1.6602 l 2.92,7.13867 2.9199,-7.13867 h -1.5528 v -1.04492 h 3.8965 v 1.04492 h -1.1621 l -4.7558,11.67969 c -0.3256,0.80729 -0.6869,1.35742 -1.084,1.65039 -0.3972,0.29947 -0.9571,0.44921 -1.6797,0.44922 -0.306,-10e-6 -0.6218,-0.0261 -0.9473,-0.0781 -0.319,-0.0521 -0.6413,-0.12696 -0.9668,-0.22461 v -1.98242 h 0.918 c 0.039,0.44271 0.1497,0.75846 0.332,0.94727 0.1888,0.19531 0.4785,0.29296 0.8692,0.29297 0.358,-10e-6 0.6445,-0.10092 0.8593,-0.30274 0.2214,-0.19531 0.4525,-0.59245 0.6934,-1.19141"
           id="path279" />
        <path
           d="m 1469.634,663.23895 c 0,-0.36458 0.1237,-0.67382 0.3711,-0.92773 0.2474,-0.25391 0.5632,-0.38086 0.9278,-0.38086 0.3646,0 0.6705,0.12695 0.9179,0.38086 0.2474,0.25391 0.3809,0.56315 0.3809,0.92773 0,0.36458 -0.1237,0.67383 -0.3711,0.92774 -0.2474,0.25391 -0.5566,0.37109 -0.9277,0.37109 -0.3711,0 -0.6804,-0.1237 -0.9278,-0.37109 -0.2474,-0.24739 -0.3711,-0.56315 -0.3711,-0.92774 m 0,-6.36718 c 0,-0.36458 0.1237,-0.67057 0.3711,-0.91797 0.2474,-0.2474 0.5632,-0.38085 0.9278,-0.38086 0.3711,10e-6 0.6803,0.1237 0.9277,0.37109 0.2474,0.24739 0.3711,0.55665 0.3711,0.92774 0,0.37109 -0.1237,0.68034 -0.3711,0.92773 -0.2474,0.24739 -0.5566,0.3711 -0.9277,0.37109 -0.3646,1e-5 -0.6739,-0.12369 -0.9278,-0.37109 -0.2539,-0.2474 -0.3711,-0.56314 -0.3711,-0.92773"
           id="path281" />
        <path
           d="m 1558.9407,663.55145 v -3.32031 l 1.123,0.01 c 0.033,1.10677 0.3516,1.92708 0.9571,2.46093 0.6055,0.53385 1.5397,0.79102 2.7832,0.79102 1.1588,0 2.041,-0.22786 2.6464,-0.68359 0.6054,-0.45573 0.918,-1.13281 0.918,-2.01172 0,-0.70312 -0.1855,-1.24349 -0.5566,-1.6211 -0.3646,-0.3776 -1.1394,-0.74543 -2.3243,-1.10351 l -1.9238,-0.57617 c -1.3932,-0.42317 -2.3763,-0.95052 -2.9492,-1.58204 -0.5729,-0.63152 -0.8496,-1.49738 -0.8496,-2.59765 0,-1.23697 0.4394,-2.19725 1.3184,-2.88086 0.879,-0.68361 2.1126,-1.02538 3.7011,-1.02539 0.6771,10e-6 1.4193,0.0749 2.2266,0.22461 0.8073,0.14324 1.6666,0.35483 2.5781,0.63476 v 3.10547 h -1.1035 c -0.1107,-1.02863 -0.4557,-1.77082 -1.0352,-2.22656 -0.5729,-0.46223 -1.4485,-0.69335 -2.6269,-0.69336 -1.0287,1e-5 -1.8132,0.2116 -2.3535,0.63477 -0.5339,0.41667 -0.8008,1.0254 -0.8008,1.82617 0,0.69662 0.2018,1.2435 0.6055,1.64062 0.4037,0.39712 1.2597,0.79103 2.5683,1.18164 l 1.8067,0.53711 c 1.3216,0.39715 2.2623,0.90496 2.8222,1.52344 0.5664,0.61198 0.8496,1.43555 0.8496,2.4707 0,1.41277 -0.4525,2.47722 -1.3574,3.19336 -0.9049,0.71614 -2.2526,1.07422 -4.043,1.07422 -0.8007,0 -1.6178,-0.0814 -2.4511,-0.24414 -0.8333,-0.16274 -1.67,-0.41016 -2.5293,-0.74219"
           id="path283" />
        <path
           d="m 1572.7395,650.65106 c 0,-0.29946 0.1074,-0.55988 0.3223,-0.78125 0.2213,-0.22134 0.485,-0.33201 0.791,-0.33203 0.2995,2e-5 0.5566,0.11069 0.7715,0.33203 0.2213,0.22137 0.332,0.48179 0.332,0.78125 0,0.306 -0.1074,0.56642 -0.3223,0.78125 -0.2149,0.21483 -0.4752,0.32228 -0.7812,0.32227 -0.306,-1e-5 -0.5697,-0.10741 -0.791,-0.32227 -0.2149,-0.21483 -0.3223,-0.47525 -0.3223,-0.78125 m 2.2949,12.56836 h 1.6992 v 1.03516 h -5.2148 v -1.03516 h 1.7187 v -8.30078 h -1.7187 v -1.04492 h 3.5156 v 9.3457"
           id="path285" />
        <path
           d="m 1587.7004,654.91864 v 9.11133 c 0,1.49088 -0.4101,2.63997 -1.2304,3.44726 -0.8203,0.80729 -1.989,1.2207 -3.5059,1.22071 -0.6836,-10e-6 -1.3379,-0.0619 -1.9629,-0.18555 -0.625,-0.12365 -1.2239,-0.30925 -1.7969,-0.55664 v -2.17773 h 0.9375 c 0.1172,0.67708 0.3939,1.17187 0.8301,1.48437 0.4362,0.3125 1.0612,0.46875 1.875,0.46875 1.0547,0 1.8262,-0.29948 2.3145,-0.89844 0.4948,-0.59245 0.7422,-1.52669 0.7422,-2.80273 v -1.39649 c -0.3516,0.65105 -0.8008,1.13282 -1.3477,1.44532 -0.5404,0.30599 -1.2109,0.45898 -2.0117,0.45898 -1.2761,0 -2.321,-0.50456 -3.1348,-1.51367 -0.8073,-1.01562 -1.2109,-2.33724 -1.2109,-3.96484 0,-1.6276 0.4036,-2.94596 1.2109,-3.95508 0.8073,-1.00912 1.8522,-1.51366 3.1348,-1.51367 0.8008,10e-6 1.4713,0.15626 2.0117,0.46875 0.5469,0.30599 0.9961,0.78451 1.3477,1.43554 v -1.62109 h 3.5156 v 1.04492 h -1.7188 m -1.7968,3.63281 c 0,-1.24348 -0.2409,-2.194 -0.7227,-2.85156 -0.4818,-0.65756 -1.1686,-0.98632 -2.0801,-0.98633 -0.9245,10e-6 -1.6243,0.36459 -2.0996,1.09375 -0.4687,0.72918 -0.7031,1.81316 -0.7031,3.25196 0,1.43229 0.2344,2.51627 0.7031,3.25195 0.4753,0.73568 1.1751,1.10351 2.0996,1.10351 0.9115,0 1.6048,-0.32552 2.0801,-0.97656 0.4818,-0.65755 0.7227,-1.61132 0.7227,-2.86133 v -1.02539"
           id="path287" />
        <path
           d="m 1590.8352,664.25458 v -1.03516 h 1.6211 v -8.30078 h -1.7188 v -1.04492 h 3.5157 v 1.8457 c 0.332,-0.70311 0.7617,-1.23371 1.289,-1.5918 0.5273,-0.35809 1.1524,-0.53709 1.8555,-0.5371 1.1458,10e-6 1.9889,0.32878 2.5293,0.98632 0.5404,0.65754 0.8105,1.68295 0.8105,3.07618 v 5.5664 h 1.6016 v 1.03516 h -4.9609 v -1.03516 h 1.5527 v -5 c 0,-1.26952 -0.1563,-2.13866 -0.4687,-2.60742 -0.3125,-0.47525 -0.8627,-0.71288 -1.6504,-0.71289 -0.8334,1e-5 -1.4681,0.306 -1.9043,0.91797 -0.4362,0.61197 -0.6543,1.49089 -0.6543,2.65625 v 4.74609 h 1.5625 v 1.03516 h -4.9805"
           id="path289" />
        <path
           d="m 1604.9856,663.23895 c 0,-0.36458 0.1237,-0.67382 0.3711,-0.92773 0.2474,-0.25391 0.5631,-0.38086 0.9277,-0.38086 0.3646,0 0.6706,0.12695 0.918,0.38086 0.2474,0.25391 0.3808,0.56315 0.3809,0.92773 10e-5,0.36458 -0.1238,0.67383 -0.3711,0.92774 -0.2473,0.25391 -0.5567,0.37109 -0.9278,0.37109 -0.3711,0 -0.6803,-0.1237 -0.9277,-0.37109 -0.2474,-0.24739 -0.3711,-0.56315 -0.3711,-0.92774 m 0,-6.36718 c 0,-0.36458 0.1237,-0.67057 0.3711,-0.91797 0.2474,-0.2474 0.5631,-0.38085 0.9277,-0.38086 0.3711,10e-6 0.6804,0.1237 0.9278,0.37109 0.2474,0.24739 0.371,0.55665 0.3711,0.92774 10e-5,0.37109 -0.1238,0.68034 -0.3711,0.92773 -0.2473,0.24739 -0.5567,0.3711 -0.9278,0.37109 -0.3646,1e-5 -0.6738,-0.12369 -0.9277,-0.37109 -0.2539,-0.2474 -0.3711,-0.56314 -0.3711,-0.92773"
           id="path291" />
      </g>
    </g>
  </g>
</svg>
